<svg xmlns="http://www.w3.org/2000/svg" width="500" height="500" viewBox="0 0 500 500">
<g>
<path d="M 0.00 0.00 L 500.00 0.00 L 500.00 500.00 L 0.00 500.00 ZM 149.25 370.34 C149.94,370.63 165.80,370.78 184.50,370.68 L 218.50 370.50 L 219.10 360.00 L 232.09 360.00 C269.61,360.00 298.27,351.54 316.07,335.22 C341.53,311.88 344.04,272.00 321.48,249.44 C309.70,237.66 294.60,231.49 270.10,228.44 L 264.71 227.77 L 273.10 225.05 C283.92,221.55 290.61,218.09 296.65,212.89 C307.68,203.40 312.57,191.99 311.81,177.52 C310.59,154.27 294.41,142.31 259.85,139.07 C245.46,137.72 170.34,137.63 169.52,138.96 C168.91,139.96 171.08,142.54 174.66,145.06 C177.57,147.11 179.67,151.66 180.94,158.66 C181.00,158.99 181.06,159.31 181.11,159.62 C181.73,162.96 182.10,164.98 181.28,166.19 C180.05,168.01 176.12,168.01 166.26,168.00 C165.66,168.00 165.04,168.00 164.39,168.00 L 148.00 168.00 L 148.00 268.92 C148.00,348.71 148.26,369.94 149.25,370.34 ZM 264.44 352.09 C258.26,353.72 252.74,354.27 239.50,354.54 C230.15,354.74 221.71,354.66 220.75,354.38 C219.11,353.89 219.00,350.08 219.00,292.81 L 219.00 231.76 L 237.75 232.25 C258.86,232.80 266.40,234.17 277.53,239.50 C296.51,248.58 306.55,265.74 307.69,291.00 C308.58,310.98 304.08,324.89 292.94,336.48 C285.87,343.84 276.79,348.82 264.44,352.09 ZM 252.47 225.47 C248.55,226.49 241.95,227.00 232.79,227.00 L 219.00 227.00 L 219.00 168.00 L 208.00 168.00 L 208.00 142.74 L 227.75 143.25 C243.83,143.66 248.65,144.12 253.71,145.76 C266.14,149.78 274.81,157.10 279.84,167.82 C282.26,172.98 282.50,174.60 282.50,185.50 C282.50,196.89 282.34,197.84 279.35,204.15 C274.15,215.13 265.34,222.11 252.47,225.47 Z" fill="rgb(12,140,124)"/>
<path d="M 149.25 370.34 C148.26,369.94 148.00,348.71 148.00,268.92 L 148.00 168.00 L 164.39 168.00 C165.04,168.00 165.66,168.00 166.26,168.00 C176.12,168.01 180.05,168.01 181.28,166.19 C181.64,165.66 181.77,164.97 181.75,164.09 L 182.36 168.00 L 219.00 168.00 L 219.00 227.00 L 220.00 227.00 L 220.00 231.76 L 238.25 232.25 C245.68,232.45 251.43,232.76 256.27,233.33 C251.34,232.76 245.45,232.45 237.75,232.25 L 219.00 231.76 L 219.00 292.81 C219.00,350.08 219.11,353.89 220.75,354.38 C221.71,354.66 230.15,354.74 239.50,354.54 C252.74,354.27 258.26,353.72 264.44,352.09 C269.20,350.83 273.48,349.31 277.35,347.50 C273.48,349.31 269.21,350.83 264.44,352.09 C258.31,353.72 252.35,354.32 238.25,354.73 L 220.00 355.27 L 220.00 357.63 C220.00,359.97 220.02,360.00 232.09,360.00 L 219.10 360.00 L 218.50 370.50 L 184.50 370.68 C165.80,370.78 149.94,370.63 149.25,370.34 ZM 197.98 333.47 C203.20,339.19 207.62,343.71 207.81,343.52 C208.32,343.02 202.50,335.41 193.83,325.23 C187.30,317.58 186.05,315.51 185.43,311.37 C185.37,311.01 185.32,310.66 185.27,310.35 C185.01,308.73 184.85,307.72 185.21,307.49 C185.78,307.11 187.71,308.78 192.80,313.17 C193.41,313.70 194.07,314.27 194.77,314.88 C198.22,317.85 201.27,320.06 201.55,319.78 C201.83,319.51 199.90,317.57 197.28,315.48 C187.47,307.66 185.00,304.81 185.00,301.30 C185.00,299.48 185.34,298.02 185.75,298.03 C186.16,298.05 190.98,301.88 196.46,306.53 C205.79,314.46 208.63,316.34 207.83,314.04 C207.65,313.51 198.76,304.23 188.08,293.42 C177.40,282.61 169.67,274.08 170.90,274.47 C172.12,274.86 177.43,277.17 182.68,279.61 C194.73,285.20 198.83,286.17 203.60,284.53 C205.75,283.79 206.78,282.98 206.11,282.57 C205.48,282.18 204.06,280.08 202.95,277.90 C201.83,275.71 200.57,274.15 200.15,274.41 C199.72,274.67 192.43,267.94 183.95,259.45 C175.46,250.95 168.87,244.00 169.29,244.00 C169.71,244.00 173.30,245.64 177.27,247.64 C186.82,252.45 197.00,256.23 198.99,255.71 C199.97,255.46 201.70,256.78 203.49,259.15 C205.08,261.27 206.80,263.00 207.31,263.00 C207.82,263.00 207.13,261.54 205.78,259.75 C203.93,257.31 203.42,255.62 203.75,252.94 C204.05,250.39 203.68,248.98 202.42,247.94 C200.80,246.61 200.76,246.67 201.91,248.83 C202.60,250.11 202.90,251.81 202.60,252.60 C202.14,253.79 201.69,253.83 200.02,252.78 C198.91,252.09 198.00,251.14 198.00,250.67 C198.00,248.89 188.73,239.05 187.64,239.67 C187.01,240.03 186.83,239.95 187.24,239.50 C187.65,239.05 187.58,238.19 187.08,237.59 C185.95,236.21 184.54,227.00 185.47,227.00 C185.85,227.00 189.51,229.93 193.61,233.50 C197.71,237.07 201.59,240.00 202.23,240.00 C202.94,240.00 203.03,239.68 202.45,239.18 C201.93,238.73 197.79,235.32 193.25,231.60 C185.47,225.22 185.00,224.60 185.00,220.91 C185.00,218.76 184.55,217.00 184.00,217.00 C183.45,217.00 183.00,218.12 183.00,219.50 C183.00,222.32 181.84,222.72 180.01,220.51 C178.10,218.21 165.39,209.00 164.13,209.00 C162.34,209.00 162.80,210.61 165.51,213.84 C167.19,215.82 167.62,216.96 166.81,217.23 C165.56,217.65 168.85,221.67 178.41,231.47 C181.12,234.24 182.47,235.38 181.41,234.00 L 179.50 231.50 L 181.68 233.34 C182.88,234.36 183.65,235.75 183.39,236.43 C183.12,237.12 183.60,238.26 184.45,238.96 C185.30,239.67 186.03,241.43 186.06,242.87 C186.13,245.44 186.15,245.45 187.03,243.25 C187.53,242.01 188.25,241.00 188.63,241.00 C189.02,241.00 189.05,241.29 188.70,241.63 C188.35,241.98 190.64,245.20 193.78,248.78 C200.58,256.53 200.50,256.52 181.36,247.91 C174.13,244.66 167.94,242.00 167.61,242.00 C165.49,242.00 168.01,245.61 174.75,252.21 C186.44,263.65 199.76,277.57 197.50,275.96 C196.40,275.18 191.38,271.04 186.35,266.77 C181.32,262.50 176.86,259.00 176.45,259.00 C175.02,259.00 179.23,262.91 191.08,272.61 C197.60,277.94 202.69,282.68 202.41,283.15 C201.12,285.23 194.66,283.56 182.42,278.00 C163.51,269.41 162.75,269.88 175.62,282.23 C184.71,290.95 200.86,308.68 194.95,303.44 C193.05,301.76 188.12,297.75 184.00,294.53 C178.15,289.97 177.27,289.50 180.00,292.39 C182.58,295.14 183.41,296.81 183.15,298.80 C182.96,300.29 182.66,301.65 182.49,301.83 C182.31,302.02 178.42,299.21 173.83,295.59 C169.25,291.98 164.94,289.01 164.25,289.01 C162.43,289.00 162.72,290.82 164.99,293.71 C166.08,295.10 166.70,296.67 166.37,297.20 C165.69,298.31 171.94,305.15 173.02,304.48 C173.41,304.24 174.58,305.05 175.62,306.27 L 177.40 308.38 C177.40,308.23 177.43,308.11 177.50,308.01 C178.26,306.77 174.18,301.77 173.00,302.50 C172.61,302.74 171.21,301.71 169.90,300.22 L 167.50 297.50 L 170.25 299.92 C171.76,301.26 173.00,301.89 173.00,301.33 C173.00,300.77 172.05,299.45 170.89,298.40 C168.47,296.21 164.60,291.00 165.40,291.00 C166.12,291.00 182.30,304.10 183.23,305.44 C183.64,306.02 183.98,308.05 183.98,309.94 L 184.00 313.37 L 180.85 310.44 C177.53,307.35 177.85,308.89 181.32,312.75 C184.29,316.05 182.85,315.50 179.58,312.08 C178.27,310.71 177.42,309.24 177.40,308.42 L 175.25 306.60 C171.03,303.02 172.99,306.19 179.50,313.46 C183.50,317.93 186.02,321.64 186.06,323.11 L 186.13 325.50 L 187.03 323.25 C187.94,320.99 189.22,320.09 188.75,322.04 C188.61,322.61 192.77,327.76 197.98,333.47 ZM 184.00 229.40 C184.00,233.42 183.78,233.65 182.01,231.51 C181.33,230.69 180.45,230.22 180.05,230.47 C179.33,230.91 175.41,227.01 171.48,221.95 C170.39,220.55 171.86,221.90 174.73,224.95 C182.62,233.32 181.04,230.02 172.49,220.26 C168.36,215.55 165.18,211.49 165.43,211.24 C165.94,210.73 175.84,218.18 180.75,222.77 C183.25,225.10 184.00,226.63 184.00,229.40 ZM 264.25 220.74 C270.94,216.87 275.93,211.38 279.35,204.15 C275.85,211.54 270.96,216.92 264.25,220.74 ZM 274.80 355.50 C291.90,351.43 305.83,344.61 316.07,335.22 C305.80,344.64 291.92,351.44 274.80,355.50 ZM 260.42 222.70 C258.66,223.51 256.88,224.18 255.02,224.74 C256.92,224.15 258.72,223.47 260.42,222.70 ZM 241.73 226.80 C239.21,226.94 236.42,227.00 233.29,227.00 L 232.79 227.00 C236.11,227.00 239.09,226.93 241.73,226.80 ZM 177.74 148.67 C176.84,147.08 175.82,145.87 174.66,145.06 C175.83,145.88 176.85,147.08 177.74,148.67 ZM 177.40 308.38 C177.40,308.39 177.40,308.41 177.40,308.42 L 177.50 308.50 L 177.40 308.38 Z" fill="rgb(26,186,130)"/>
<path d="M 197.98 333.47 C192.77,327.76 188.61,322.61 188.75,322.04 C189.22,320.09 187.94,320.99 187.03,323.25 L 186.13 325.50 L 186.06 323.11 C186.02,321.64 183.50,317.93 179.50,313.46 C172.99,306.19 171.03,303.02 175.25,306.60 L 177.40 308.42 C177.40,308.41 177.40,308.39 177.40,308.38 L 175.62 306.27 C174.58,305.05 173.41,304.24 173.02,304.48 C171.94,305.15 165.69,298.31 166.37,297.20 C166.70,296.67 166.08,295.10 164.99,293.71 C162.72,290.82 162.43,289.00 164.25,289.01 C164.94,289.01 169.25,291.98 173.83,295.59 C178.42,299.21 182.31,302.02 182.49,301.83 C182.66,301.65 182.96,300.29 183.15,298.80 C183.41,296.81 182.58,295.14 180.00,292.39 C177.27,289.50 178.15,289.97 184.00,294.53 C188.12,297.75 193.05,301.76 194.95,303.44 C200.86,308.68 184.71,290.95 175.62,282.23 C162.75,269.88 163.51,269.41 182.42,278.00 C194.66,283.56 201.12,285.23 202.41,283.15 C202.69,282.68 197.60,277.94 191.08,272.61 C179.23,262.91 175.02,259.00 176.45,259.00 C176.86,259.00 181.32,262.50 186.35,266.77 C191.38,271.04 196.40,275.18 197.50,275.96 C199.76,277.57 186.44,263.65 174.75,252.21 C168.01,245.61 165.49,242.00 167.61,242.00 C167.94,242.00 174.13,244.66 181.36,247.91 C200.50,256.52 200.58,256.53 193.78,248.78 C190.64,245.20 188.35,241.98 188.70,241.63 C189.05,241.29 189.02,241.00 188.63,241.00 C188.25,241.00 187.53,242.01 187.03,243.25 C186.15,245.45 186.13,245.44 186.06,242.87 C186.03,241.43 185.30,239.67 184.45,238.96 C183.60,238.26 183.12,237.12 183.39,236.43 C183.65,235.75 182.88,234.36 181.68,233.34 L 179.50 231.50 L 181.41 234.00 C182.47,235.38 181.12,234.24 178.41,231.47 C168.85,221.67 165.56,217.65 166.81,217.23 C167.62,216.96 167.19,215.82 165.51,213.84 C162.80,210.61 162.34,209.00 164.13,209.00 C165.39,209.00 178.10,218.21 180.01,220.51 C181.84,222.72 183.00,222.32 183.00,219.50 C183.00,218.12 183.45,217.00 184.00,217.00 C184.55,217.00 185.00,218.76 185.00,220.91 C185.00,224.60 185.47,225.22 193.25,231.60 C197.79,235.32 201.93,238.73 202.45,239.18 C203.03,239.68 202.94,240.00 202.23,240.00 C201.59,240.00 197.71,237.07 193.61,233.50 C189.51,229.93 185.85,227.00 185.47,227.00 C184.54,227.00 185.95,236.21 187.08,237.59 C187.58,238.19 187.65,239.05 187.24,239.50 C186.83,239.95 187.01,240.03 187.64,239.67 C188.73,239.05 198.00,248.89 198.00,250.67 C198.00,251.14 198.91,252.09 200.02,252.78 C201.69,253.83 202.14,253.79 202.60,252.60 C202.90,251.81 202.60,250.11 201.91,248.83 C200.76,246.67 200.80,246.61 202.42,247.94 C203.68,248.98 204.05,250.39 203.75,252.94 C203.42,255.62 203.93,257.31 205.78,259.75 C207.13,261.54 207.82,263.00 207.31,263.00 C206.80,263.00 205.08,261.27 203.49,259.15 C201.70,256.78 199.97,255.46 198.99,255.71 C197.00,256.23 186.82,252.45 177.27,247.64 C173.30,245.64 169.71,244.00 169.29,244.00 C168.87,244.00 175.46,250.95 183.95,259.45 C192.43,267.94 199.72,274.67 200.15,274.41 C200.57,274.15 201.83,275.71 202.95,277.90 C203.47,278.92 204.06,279.92 204.60,280.74 C203.74,279.71 202.71,278.69 201.85,278.15 C199.25,276.51 200.18,279.92 202.94,282.15 C203.79,282.84 204.72,283.44 205.40,283.76 C204.95,284.01 204.34,284.27 203.60,284.53 C198.83,286.17 194.73,285.20 182.68,279.61 C177.43,277.17 172.12,274.86 170.90,274.47 C169.67,274.08 177.40,282.61 188.08,293.42 C198.76,304.23 207.65,313.51 207.83,314.04 C208.63,316.34 205.79,314.46 196.46,306.53 C190.98,301.88 186.16,298.05 185.75,298.03 C185.34,298.02 185.00,299.48 185.00,301.30 C185.00,304.81 187.47,307.66 197.28,315.48 C199.90,317.57 201.83,319.51 201.55,319.78 C201.27,320.06 198.22,317.85 194.77,314.88 C194.07,314.27 193.41,313.70 192.80,313.17 C187.71,308.78 185.78,307.11 185.21,307.49 C184.85,307.72 185.01,308.73 185.27,310.35 C185.32,310.66 185.37,311.01 185.43,311.37 C186.05,315.51 187.30,317.58 193.83,325.23 C202.50,335.41 208.32,343.02 207.81,343.52 C207.62,343.71 203.20,339.19 197.98,333.47 ZM 177.40 308.38 L 177.50 308.50 L 177.40 308.42 C177.42,309.24 178.27,310.71 179.58,312.08 C182.85,315.50 184.29,316.05 181.32,312.75 C177.85,308.89 177.53,307.35 180.85,310.44 L 184.00 313.37 L 183.98 309.94 C183.98,308.05 183.64,306.02 183.23,305.44 C182.30,304.10 166.12,291.00 165.40,291.00 C164.60,291.00 168.47,296.21 170.89,298.40 C172.05,299.45 173.00,300.77 173.00,301.33 C173.00,301.89 171.76,301.26 170.25,299.92 L 167.50 297.50 L 169.90 300.22 C171.21,301.71 172.61,302.74 173.00,302.50 C174.18,301.77 178.26,306.77 177.50,308.01 C177.43,308.11 177.40,308.23 177.40,308.38 ZM 184.00 229.40 C184.00,226.63 183.25,225.10 180.75,222.77 C175.84,218.18 165.94,210.73 165.43,211.24 C165.18,211.49 168.36,215.55 172.49,220.26 C181.04,230.02 182.62,233.32 174.73,224.95 C171.86,221.90 170.39,220.55 171.48,221.95 C175.41,227.01 179.33,230.91 180.05,230.47 C180.45,230.22 181.33,230.69 182.01,231.51 C183.78,233.65 184.00,233.42 184.00,229.40 ZM 206.22 283.12 C206.10,282.85 205.91,282.53 205.68,282.18 C205.85,282.36 205.99,282.50 206.11,282.57 C206.34,282.71 206.37,282.90 206.22,283.12 Z" fill="rgb(135,237,207)"/>
<path d="M 220.00 357.63 L 220.00 355.27 L 238.25 354.73 C252.35,354.32 258.31,353.72 264.44,352.09 C276.80,348.81 285.88,343.84 292.94,336.48 C304.08,324.89 308.58,310.98 307.69,291.00 C306.55,265.74 296.51,248.58 277.53,239.50 C266.51,234.22 258.83,232.80 238.25,232.25 L 220.00 231.76 L 220.00 229.38 L 220.00 227.00 L 233.29 227.00 C248.03,227.00 255.22,225.62 263.40,221.22 C270.54,217.37 275.70,211.86 279.35,204.15 C282.34,197.84 282.50,196.89 282.50,185.50 C282.50,174.60 282.26,172.98 279.84,167.82 C274.81,157.10 266.14,149.78 253.71,145.76 C248.65,144.12 243.83,143.66 227.75,143.25 L 208.00 142.74 L 208.00 155.37 L 208.00 168.00 L 195.18 168.00 L 182.36 168.00 L 181.19 160.47 C179.91,152.22 177.81,147.28 174.66,145.06 C171.08,142.54 168.91,139.96 169.52,138.96 C170.34,137.63 245.46,137.72 259.85,139.07 C294.41,142.31 310.59,154.27 311.81,177.52 C312.57,191.99 307.68,203.40 296.65,212.89 C290.61,218.09 283.92,221.55 273.10,225.05 L 264.71 227.77 L 270.10 228.44 C294.60,231.49 309.70,237.66 321.48,249.44 C344.04,272.00 341.53,311.88 316.07,335.22 C298.36,351.47 269.59,360.00 232.54,360.00 C220.02,360.00 220.00,360.00 220.00,357.63 ZM 202.94 282.15 C200.18,279.92 199.25,276.51 201.85,278.15 C204.05,279.54 207.34,284.00 206.16,284.00 C205.64,284.00 204.20,283.17 202.94,282.15 Z" fill="rgb(249,254,253)"/>
</g>
</svg>